<?xml version="1.0" encoding="UTF-8"?>
<svg version="1.1" xmlns="http://www.w3.org/2000/svg" width="500" height="500">
<path d="M0 0 C1.98552305 1.13148803 3.27000425 2.0604158 4.73046875 3.828125 C7.16023249 5.83657579 8.97528449 5.34240954 12.0625 5.125 C18.82683213 4.97812668 23.1688104 6.16738391 28.125 10.8359375 C33.04666741 16.25450403 34.44078449 20.88744489 35.08984375 28.0625 C35.29544274 30.3073415 35.29544274 30.3073415 36.4375 32.6875 C38.37775456 37.86151216 37.84621779 42.77384664 36.125 47.9375 C32.75842569 54.18970944 29.25522299 57.95043609 22.375 60.1875 C17.65541589 60.73581688 12.99591618 60.70138806 8.25 60.625 C7.00089844 60.63208984 5.75179687 60.63917969 4.46484375 60.64648438 C-2.74365317 60.59647879 -7.32535146 59.91061074 -13.5 56 C-15.02734053 53.5392847 -15.27641656 51.25217683 -15.17578125 48.38671875 C-14.09478329 44.07039356 -10.99116779 40.96117017 -7.625 38.1875 C-4.88671875 36.9609375 -4.88671875 36.9609375 -2.625 36.1875 C-1.28680502 38.8101232 0.0457151 41.43536599 1.375 44.0625 C1.7565625 44.80886719 2.138125 45.55523437 2.53125 46.32421875 C3.07265625 47.39736328 3.07265625 47.39736328 3.625 48.4921875 C3.96015625 49.15202637 4.2953125 49.81186523 4.640625 50.49169922 C5.375 52.1875 5.375 52.1875 5.375 54.1875 C6.035 54.1875 6.695 54.1875 7.375 54.1875 C7.1584375 53.37925781 6.941875 52.57101562 6.71875 51.73828125 C6.4403125 50.66964844 6.161875 49.60101563 5.875 48.5 C5.5965625 47.44425781 5.318125 46.38851562 5.03125 45.30078125 C3.57954545 38.41382576 3.57954545 38.41382576 5.875 34.875 C6.37 34.318125 6.865 33.76125 7.375 33.1875 C4.9 33.6825 4.9 33.6825 2.375 34.1875 C2.70788637 31.10169622 2.99053994 29.57114725 5.22265625 27.34375 C6.70088947 26.23833397 8.1800593 25.13416934 9.66015625 24.03125 C11.64702885 22.27229757 11.64702885 22.27229757 11.62109375 19.46875 C11.53988281 18.7159375 11.45867187 17.963125 11.375 17.1875 C7.90352158 16.43792843 7.90352158 16.43792843 4.375 16.1875 C4.148125 16.744375 3.92125 17.30125 3.6875 17.875 C1.97651785 20.88958759 0.002627 22.93524829 -2.625 25.1875 C-3.945 25.1875 -5.265 25.1875 -6.625 25.1875 C-6.625 24.5275 -6.625 23.8675 -6.625 23.1875 C-5.965 23.1875 -5.305 23.1875 -4.625 23.1875 C-5.285 22.1975 -5.945 21.2075 -6.625 20.1875 C-7.03363281 20.68636719 -7.44226563 21.18523437 -7.86328125 21.69921875 C-9.625 23.1875 -9.625 23.1875 -11.60546875 23.33203125 C-12.69794922 23.16767578 -12.69794922 23.16767578 -13.8125 23 C-14.99199219 22.82597656 -14.99199219 22.82597656 -16.1953125 22.6484375 C-19.72262183 21.97926949 -23.16105508 21.13221225 -26.625 20.1875 C-26.625 20.8475 -26.625 21.5075 -26.625 22.1875 C-25.305 22.1875 -23.985 22.1875 -22.625 22.1875 C-22.625 22.8475 -22.625 23.5075 -22.625 24.1875 C-21.8 24.435 -20.975 24.6825 -20.125 24.9375 C-16.10126529 26.37454811 -12.40520976 28.21104515 -8.625 30.1875 C-9.48558531 36.02624036 -14.31050517 39.57491552 -18.625 43.1875 C-26.70802705 48.19520626 -34.1145197 50.19222513 -43.625 49.1875 C-47.771024 47.15085663 -49.97502443 45.4715173 -51.625 41.1875 C-51.9609375 38.12890625 -51.9609375 38.12890625 -52 34.75 C-52.04253906 33.08130859 -52.04253906 33.08130859 -52.0859375 31.37890625 C-51.52472461 27.49322039 -50.3732531 25.9453961 -47.625 23.1875 C-45.625 21.82421875 -45.625 21.82421875 -43.625 20.875 C-42.635 20.38580078 -42.635 20.38580078 -41.625 19.88671875 C-39.625 19.1875 -39.625 19.1875 -35.625 19.1875 C-35.58375 18.1975 -35.5425 17.2075 -35.5 16.1875 C-34.64717476 10.41632647 -31.10983324 6.08628766 -26.5546875 2.60546875 C-18.66543476 -2.4453997 -8.7599872 -4.27396024 0 0 Z " fill="#F6B830" transform="translate(257.625,237.8125)"/>
<path d="M0 0 C1.33819498 2.6226232 2.6707151 5.24786599 4 7.875 C4.3815625 8.62136719 4.763125 9.36773437 5.15625 10.13671875 C5.5171875 10.85214844 5.878125 11.56757813 6.25 12.3046875 C6.58515625 12.96452637 6.9203125 13.62436523 7.265625 14.30419922 C8 16 8 16 8 18 C9.32 18.66 10.64 19.32 12 20 C12 20.66 12 21.32 12 22 C16.62 22 21.24 22 26 22 C25.67 22.66 25.34 23.32 25 24 C20.45845522 24.08735463 15.91712768 24.14051247 11.375 24.1875 C9.44720703 24.22520508 9.44720703 24.22520508 7.48046875 24.26367188 C5.61455078 24.27817383 5.61455078 24.27817383 3.7109375 24.29296875 C1.99849854 24.31653442 1.99849854 24.31653442 0.25146484 24.34057617 C-4.11681488 23.88301872 -7.21297469 22.1317827 -10.875 19.8125 C-12.40152525 17.35309821 -12.64858613 15.06309397 -12.55859375 12.19921875 C-11.31474579 7.30211106 -5.36822551 0 0 0 Z " fill="#F7BB32" transform="translate(255,274)"/>
<path d="M0 0 C3.48670834 1.1094072 6.77484237 2.26337666 10 4 C9.45916492 8.00584629 7.50509442 9.89757427 4.6875 12.6875 C3.90761719 13.47511719 3.12773437 14.26273437 2.32421875 15.07421875 C0.08498241 16.929586 -1.16510303 17.61725647 -4 18 C-4.33 16.02 -4.66 14.04 -5 12 C-1.77208445 9.8480563 -0.71599191 9.79913557 3 10 C3 9.34 3 8.68 3 8 C3 7.67 3 7.34 3 7 C1.68 6.34 0.36 5.68 -1 5 C-0.34 4.34 0.32 3.68 1 3 C0.67 2.01 0.34 1.02 0 0 Z " fill="#E9AF32" transform="translate(239,264)"/>
<path d="M0 0 C0.144375 0.639375 0.28875 1.27875 0.4375 1.9375 C0.81007181 3.97545146 0.81007181 3.97545146 2 5 C2.04080783 6.99958364 2.04254356 9.00045254 2 11 C1.360625 11.268125 0.72125 11.53625 0.0625 11.8125 C-2.33131686 12.88667752 -2.33131686 12.88667752 -3 16 C-3.66 16 -4.32 16 -5 16 C-5.33 16.99 -5.66 17.98 -6 19 C-6.26218749 15.85375007 -6.24754367 14.38162983 -4.5 11.6875 C-4.005 11.130625 -3.51 10.57375 -3 10 C-4.65 10.33 -6.3 10.66 -8 11 C-7.91433603 8.087425 -7.42089045 6.43201976 -5.375 4.33203125 C-3.61608625 2.83908228 -1.83686981 1.39563738 0 0 Z " fill="#D6A533" transform="translate(268,261)"/>
<path d="M0 0 C1.4783226 2.95664519 1.06032783 5.74229737 1 9 C2.32 9 3.64 9 5 9 C5.103125 9.639375 5.20625 10.27875 5.3125 10.9375 C5.539375 11.618125 5.76625 12.29875 6 13 C6.99 13.33 7.98 13.66 9 14 C9 14.66 9 15.32 9 16 C17.58 16 26.16 16 35 16 C35 16.33 35 16.66 35 17 C30.45845522 17.08735463 25.91712768 17.14051247 21.375 17.1875 C19.44720703 17.22520508 19.44720703 17.22520508 17.48046875 17.26367188 C15.61455078 17.27817383 15.61455078 17.27817383 13.7109375 17.29296875 C11.99849854 17.31653442 11.99849854 17.31653442 10.25146484 17.34057617 C5.88318512 16.88301872 2.78702531 15.1317827 -0.875 12.8125 C-2.73522842 9.81546532 -2.5318719 6.42608394 -2 3 C-1.34 2.01 -0.68 1.02 0 0 Z " fill="#CB9B32" transform="translate(245,281)"/>
<path d="M0 0 C-3.42689636 1.14229879 -5.61102218 0.90861076 -9.1875 0.5625 C-10.81751953 0.40974609 -10.81751953 0.40974609 -12.48046875 0.25390625 C-13.31191406 0.17011719 -14.14335937 0.08632812 -15 0 C-15.33 0.66 -15.66 1.32 -16 2 C-16.33 2.33 -16.66 2.66 -17 3 C-16.34 3.66 -15.68 4.32 -15 5 C-15.33 5.33 -15.66 5.66 -16 6 C-15.34 6.66 -14.68 7.32 -14 8 C-14.804375 8.12375 -15.60875 8.2475 -16.4375 8.375 C-17.283125 8.58125 -18.12875 8.7875 -19 9 C-19.33 9.66 -19.66 10.32 -20 11 C-20 10.34 -20 9.68 -20 9 C-20.66 8.67 -21.32 8.34 -22 8 C-21.67 5.03 -21.34 2.06 -21 -1 C-13.94936486 -2.20010811 -6.58655274 -3.39951109 0 0 Z " fill="#D09E2F" transform="translate(281,245)"/>
<path d="M0 0 C0.66 0 1.32 0 2 0 C5 5.75 5 5.75 5 8 C6.32 8.66 7.64 9.32 9 10 C9 10.66 9 11.32 9 12 C5.7 12 2.4 12 -1 12 C-2.09898702 8.70303895 -1.87124444 7.59505097 -1.0625 4.3125 C-0.86785156 3.50425781 -0.67320312 2.69601562 -0.47265625 1.86328125 C-0.31667969 1.24839844 -0.16070312 0.63351562 0 0 Z " fill="#E6AE34" transform="translate(258,284)"/>
<path d="M0 0 C0.33 0 0.66 0 1 0 C1.37121722 7.54808339 1.37121722 7.54808339 -0.4375 9.75 C-1.2109375 10.36875 -1.2109375 10.36875 -2 11 C-2.33 12.32 -2.66 13.64 -3 15 C-5.97 15 -8.94 15 -12 15 C-9 13 -9 13 -5 13 C-4.9175 11.96875 -4.835 10.9375 -4.75 9.875 C-3.93822027 5.68080471 -2.60767737 3.34108663 0 0 Z " fill="#C69833" transform="translate(227,244)"/>
<path d="M0 0 C3.48670834 1.1094072 6.77484237 2.26337666 10 4 C9.6875 5.875 9.6875 5.875 9 8 C8.01 8.66 7.02 9.32 6 10 C5.67 9.01 5.34 8.02 5 7 C3.7934375 6.814375 3.7934375 6.814375 2.5625 6.625 C1.716875 6.41875 0.87125 6.2125 0 6 C-0.33 5.34 -0.66 4.68 -1 4 C-0.34 3.67 0.32 3.34 1 3 C0.67 2.01 0.34 1.02 0 0 Z " fill="#CE9E33" transform="translate(239,264)"/>
<path d="M0 0 C-1.30613942 3.91841827 -2.83129848 6.32640809 -6 9 C-6.66 9 -7.32 9 -8 9 C-7.70100785 5.41209425 -7.23013399 4.21833224 -4.5625 1.6875 C-2 0 -2 0 0 0 Z " fill="#D3A23A" transform="translate(215,259)"/>
<path d="M0 0 C0.99 0.33 1.98 0.66 3 1 C1.3598606 5.78373993 -0.78383824 9.70723897 -5.25 12.3125 C-6.11625 12.6528125 -6.11625 12.6528125 -7 13 C-7 10 -7 10 -4.625 7.3125 C-2 5 -2 5 0 5 C0 3.35 0 1.7 0 0 Z " fill="#C0923B" transform="translate(291,283)"/>
<path d="M0 0 C3.36179774 1.44077046 5.59156268 3.24750021 8 6 C8 6.66 8 7.32 8 8 C6.125 7.6875 6.125 7.6875 4 7 C3.34 6.01 2.68 5.02 2 4 C1.01 4.66 0.02 5.32 -1 6 C-1.33 5.34 -1.66 4.68 -2 4 C-1.0625 1.875 -1.0625 1.875 0 0 Z " fill="#D9A835" transform="translate(281,246)"/>
<path d="M0 0 C0.66 1.98 1.32 3.96 2 6 C1.34 6.66 0.68 7.32 0 8 C-0.33 6.35 -0.66 4.7 -1 3 C-2.1446875 3.7425 -2.1446875 3.7425 -3.3125 4.5 C-6 6 -6 6 -9 6 C-7.8803014 4.99406757 -6.7540588 3.9954151 -5.625 3 C-4.68527344 2.1646875 -4.68527344 2.1646875 -3.7265625 1.3125 C-2 0 -2 0 0 0 Z " fill="#B08733" transform="translate(255,274)"/>
<path d="M0 0 C0 0.66 0 1.32 0 2 C-1.41750563 1.88490339 -2.83401169 1.75746342 -4.25 1.625 C-5.03890625 1.55539062 -5.8278125 1.48578125 -6.640625 1.4140625 C-9.085877 0.98492887 -10.84836903 0.21399362 -13 -1 C-8.05632546 -2.20577428 -4.79137588 -1.6290678 0 0 Z " fill="#B58A35" transform="translate(248,259)"/>
<path d="M0 0 C1.20272819 2.40545638 1.10071472 3.94996953 1.0625 6.625 C1.05347656 7.44226563 1.04445312 8.25953125 1.03515625 9.1015625 C1.02355469 9.72804688 1.01195312 10.35453125 1 11 C0.01 11 -0.98 11 -2 11 C-2.25 3.375 -2.25 3.375 0 0 Z " fill="#BE963D" transform="translate(245,281)"/>
<path d="M0 0 C0.66 0 1.32 0 2 0 C2 0.66 2 1.32 2 2 C2.66 2.33 3.32 2.66 4 3 C3.67 5.97 3.34 8.94 3 12 C2.67 12 2.34 12 2 12 C1.34 8.04 0.68 4.08 0 0 Z " fill="#B78E34" transform="translate(263,280)"/>
<path d="M0 0 C-1.19512195 3.58536585 -1.19512195 3.58536585 -4.0625 5.0625 C-4.701875 5.371875 -5.34125 5.68125 -6 6 C-6.33 5.01 -6.66 4.02 -7 3 C-6.67 2.34 -6.34 1.68 -6 1 C-3.911361 0.32624548 -2.19636905 0 0 0 Z " fill="#FABC3B" transform="translate(221,258)"/>
<path d="M0 0 C0.33 0.66 0.66 1.32 1 2 C3.01669827 3.13350534 3.01669827 3.13350534 5 4 C5 4.66 5 5.32 5 6 C2.69 6 0.38 6 -2 6 C-1.34 4.02 -0.68 2.04 0 0 Z " fill="#D6A02C" transform="translate(262,290)"/>
<path d="M0 0 C0.33 1.32 0.66 2.64 1 4 C2.32 4 3.64 4 5 4 C5 4.99 5 5.98 5 7 C3.125 6.75 3.125 6.75 1 6 C-0.3125 4.0625 -0.3125 4.0625 -1 2 C-0.67 1.34 -0.34 0.68 0 0 Z " fill="#BF9437" transform="translate(208,278)"/>
<path d="M0 0 C0.33 0.66 0.66 1.32 1 2 C0.0625 4.125 0.0625 4.125 -1 6 C-1.66 6 -2.32 6 -3 6 C-3.33 6.99 -3.66 7.98 -4 9 C-4.25 6.75 -4.25 6.75 -4 4 C-2 1.6875 -2 1.6875 0 0 Z " fill="#986F26" transform="translate(266,271)"/>
<path d="M0 0 C0.99 0 1.98 0 3 0 C2.60196439 2.88575819 2.20990931 3.82189513 -0.0625 5.75 C-0.701875 6.1625 -1.34125 6.575 -2 7 C-2.33 5.68 -2.66 4.36 -3 3 C-1.68 3 -0.36 3 1 3 C0.67 2.01 0.34 1.02 0 0 Z " fill="#E4B13F" transform="translate(242,272)"/>
<path d="M0 0 C0.33 0 0.66 0 1 0 C1.33 3.63 1.66 7.26 2 11 C1.01 10.67 0.02 10.34 -1 10 C-0.67 6.7 -0.34 3.4 0 0 Z " fill="#C79630" transform="translate(291,259)"/>
</svg>
